# xmcd
#
# Track frame offsets: 
#        150
#        16575
#        29475
#        45525
#        55725
#        73237
#        89362
#        104737
#        117937
#        139162
#        156487
#        174637
#        199237
#        223499
#        234974
#        248549
#        262124
#        276449
#
# Disc length: 3831 seconds
#
# Revision: 0
# Processed by: cddbd v1.5.2PL0 Copyright (c) Steve Scherf et al.
# Submitted via: ExactAudioCopy v1.3
#
DISCID=130ef512
DTITLE=Clifton Chenier - Clifton Chenier Meets Buddy and Babe
DYEAR=2019
DGENRE=Blues
TTITLE0=Caldonia (Live)
TTITLE1=Chu Chu Boogie (Live)
TTITLE2=Got Me Where You Want Me (Live)
TTITLE3=I Don't Know Lafayette (Live)
TTITLE4=I'm Coming Home (Live)
TTITLE5=Jole Blon (Live)
TTITLE6=Kansas City (Live)
TTITLE7=Keep a Knockin' (Live)
TTITLE8=Let the Good Times Roll (Live)
TTITLE9=Night Time Is the Righttime (Live)
TTITLE10=There's Something Wrong (Live)
TTITLE11=We're Gonna Party (Live)
TTITLE12=What'd I Say (Live)
TTITLE13=You Gona Need My Help Someday
TTITLE14=Whiskey and Women
TTITLE15=Evil Hearted Woman Blues
TTITLE16=The Lone Wolf
TTITLE17=Baton Rouge Rag (Instrumental)
EXTD=
EXTT0=
EXTT1=
EXTT2=
EXTT3=
EXTT4=
EXTT5=
EXTT6=
EXTT7=
EXTT8=
EXTT9=
EXTT10=
EXTT11=
EXTT12=
EXTT13=
EXTT14=
EXTT15=
EXTT16=
EXTT17=
PLAYORDER=
